<svg xmlns="http://www.w3.org/2000/svg" xmlns:xlink="http://www.w3.org/1999/xlink" width="367" zoomAndPan="magnify" viewBox="0 0 275.25 374.999989" height="500" preserveAspectRatio="xMidYMid meet" version="1.0"><defs><clipPath id="17f54c8050"><path d="M 0 0.507812 L 274.503906 0.507812 L 274.503906 374.488281 L 0 374.488281 Z M 0 0.507812 " clip-rule="nonzero"/></clipPath></defs><g clip-path="url(#17f54c8050)"><path fill="#000000" d="M 255.714844 0.507812 L 18.785156 0.507812 C 18.175781 0.511719 17.5625 0.539062 16.953125 0.601562 C 16.34375 0.660156 15.738281 0.753906 15.140625 0.871094 C 14.539062 0.992188 13.945312 1.140625 13.359375 1.320312 C 12.773438 1.496094 12.199219 1.703125 11.632812 1.9375 C 11.066406 2.171875 10.511719 2.433594 9.972656 2.722656 C 9.433594 3.011719 8.910156 3.328125 8.398438 3.667969 C 7.890625 4.007812 7.398438 4.371094 6.925781 4.761719 C 6.453125 5.148438 6 5.558594 5.566406 5.992188 C 5.132812 6.425781 4.722656 6.878906 4.332031 7.351562 C 3.945312 7.824219 3.582031 8.316406 3.242188 8.824219 C 2.898438 9.332031 2.585938 9.859375 2.296875 10.398438 C 2.007812 10.9375 1.746094 11.492188 1.511719 12.054688 C 1.277344 12.621094 1.070312 13.195312 0.890625 13.78125 C 0.714844 14.367188 0.566406 14.960938 0.445312 15.5625 C 0.324219 16.164062 0.234375 16.765625 0.171875 17.375 C 0.113281 17.984375 0.0820312 18.597656 0.0820312 19.207031 L 0.0820312 355.792969 C 0.0820312 356.402344 0.113281 357.015625 0.171875 357.625 C 0.234375 358.234375 0.324219 358.835938 0.445312 359.4375 C 0.566406 360.039062 0.714844 360.632812 0.890625 361.21875 C 1.070312 361.804688 1.277344 362.378906 1.511719 362.945312 C 1.746094 363.507812 2.007812 364.0625 2.296875 364.601562 C 2.585938 365.140625 2.898438 365.667969 3.242188 366.175781 C 3.582031 366.683594 3.945312 367.175781 4.332031 367.648438 C 4.722656 368.121094 5.132812 368.574219 5.566406 369.007812 C 6 369.441406 6.453125 369.851562 6.925781 370.238281 C 7.398438 370.628906 7.890625 370.992188 8.398438 371.332031 C 8.910156 371.671875 9.433594 371.988281 9.972656 372.277344 C 10.511719 372.566406 11.066406 372.828125 11.632812 373.0625 C 12.199219 373.296875 12.773438 373.503906 13.359375 373.679688 C 13.945312 373.859375 14.539062 374.007812 15.140625 374.128906 C 15.738281 374.246094 16.34375 374.339844 16.953125 374.398438 C 17.5625 374.460938 18.175781 374.488281 18.785156 374.492188 L 255.714844 374.492188 C 256.328125 374.488281 256.9375 374.460938 257.546875 374.398438 C 258.15625 374.339844 258.761719 374.246094 259.363281 374.128906 C 259.964844 374.007812 260.558594 373.859375 261.144531 373.679688 C 261.730469 373.503906 262.304688 373.296875 262.871094 373.0625 C 263.4375 372.828125 263.988281 372.566406 264.527344 372.277344 C 265.070312 371.988281 265.59375 371.671875 266.101562 371.332031 C 266.613281 370.992188 267.101562 370.628906 267.574219 370.238281 C 268.050781 369.851562 268.503906 369.441406 268.9375 369.007812 C 269.367188 368.574219 269.78125 368.121094 270.167969 367.648438 C 270.558594 367.175781 270.921875 366.683594 271.261719 366.175781 C 271.601562 365.667969 271.917969 365.140625 272.207031 364.601562 C 272.496094 364.0625 272.757812 363.507812 272.992188 362.945312 C 273.226562 362.378906 273.433594 361.804688 273.609375 361.21875 C 273.789062 360.632812 273.9375 360.039062 274.058594 359.4375 C 274.175781 358.835938 274.269531 358.234375 274.328125 357.625 C 274.390625 357.015625 274.417969 356.402344 274.421875 355.792969 L 274.421875 19.207031 C 274.417969 18.597656 274.390625 17.984375 274.328125 17.375 C 274.269531 16.765625 274.175781 16.164062 274.058594 15.5625 C 273.9375 14.960938 273.789062 14.367188 273.609375 13.78125 C 273.433594 13.195312 273.226562 12.621094 272.992188 12.054688 C 272.757812 11.492188 272.496094 10.9375 272.207031 10.398438 C 271.917969 9.859375 271.601562 9.332031 271.261719 8.824219 C 270.921875 8.316406 270.558594 7.824219 270.167969 7.351562 C 269.78125 6.878906 269.367188 6.425781 268.9375 5.992188 C 268.503906 5.558594 268.050781 5.148438 267.574219 4.761719 C 267.101562 4.371094 266.613281 4.007812 266.101562 3.667969 C 265.59375 3.328125 265.070312 3.011719 264.527344 2.722656 C 263.988281 2.433594 263.4375 2.171875 262.871094 1.9375 C 262.304688 1.703125 261.730469 1.496094 261.144531 1.320312 C 260.558594 1.140625 259.964844 0.992188 259.363281 0.871094 C 258.761719 0.753906 258.15625 0.660156 257.546875 0.601562 C 256.9375 0.539062 256.328125 0.511719 255.714844 0.507812 Z M 261.949219 293.160156 C 242.273438 265.777344 224.539062 235.324219 224.539062 187.5 C 224.539062 139.6875 242.289062 109.253906 261.949219 81.863281 Z M 139.945312 87.945312 L 138.214844 90.675781 C 122.808594 115.054688 98.222656 142 74.445312 168.054688 C 50.378906 194.425781 27.324219 219.707031 12.550781 242.957031 L 12.550781 166.265625 L 14.289062 165.003906 C 25.78125 156.683594 40.082031 146.332031 53.957031 134.753906 C 54.269531 134.492188 54.558594 134.203125 54.816406 133.882812 C 55.074219 133.566406 55.300781 133.222656 55.488281 132.863281 C 55.679688 132.5 55.835938 132.121094 55.949219 131.726562 C 56.066406 131.335938 56.144531 130.933594 56.183594 130.527344 C 56.21875 130.117188 56.214844 129.710938 56.171875 129.304688 C 56.128906 128.894531 56.046875 128.496094 55.925781 128.105469 C 55.804688 127.714844 55.644531 127.335938 55.449219 126.976562 C 55.253906 126.617188 55.023438 126.28125 54.761719 125.964844 C 54.496094 125.652344 54.207031 125.367188 53.886719 125.109375 C 53.566406 124.851562 53.226562 124.628906 52.863281 124.4375 C 52.5 124.246094 52.121094 124.09375 51.726562 123.980469 C 51.335938 123.863281 50.933594 123.789062 50.527344 123.75 C 50.117188 123.714844 49.710938 123.71875 49.300781 123.761719 C 48.894531 123.808594 48.496094 123.890625 48.105469 124.015625 C 47.710938 124.136719 47.335938 124.296875 46.976562 124.496094 C 46.617188 124.691406 46.28125 124.921875 45.96875 125.183594 C 34.46875 134.777344 23.054688 143.222656 12.550781 150.855469 L 12.550781 97.398438 C 15.433594 96.105469 18.253906 94.828125 21.320312 93.46875 C 61.945312 75.417969 72.664062 48.179688 74.683594 12.976562 L 107.34375 12.976562 C 113.605469 43.566406 99.53125 74.957031 64.347656 108.769531 C 64.054688 109.054688 63.792969 109.363281 63.5625 109.699219 C 63.328125 110.035156 63.132812 110.390625 62.96875 110.761719 C 62.808594 111.136719 62.683594 111.523438 62.597656 111.921875 C 62.511719 112.320312 62.464844 112.722656 62.460938 113.132812 C 62.453125 113.539062 62.484375 113.945312 62.558594 114.34375 C 62.628906 114.746094 62.742188 115.136719 62.890625 115.515625 C 63.039062 115.894531 63.222656 116.257812 63.445312 116.601562 C 63.664062 116.941406 63.914062 117.261719 64.199219 117.554688 C 64.480469 117.851562 64.789062 118.113281 65.121094 118.347656 C 65.457031 118.582031 65.8125 118.777344 66.183594 118.941406 C 66.558594 119.109375 66.941406 119.234375 67.339844 119.320312 C 67.738281 119.410156 68.140625 119.460938 68.550781 119.46875 C 68.957031 119.476562 69.363281 119.449219 69.765625 119.378906 C 70.167969 119.308594 70.558594 119.199219 70.9375 119.054688 C 71.316406 118.90625 71.679688 118.722656 72.027344 118.507812 C 72.371094 118.289062 72.691406 118.039062 72.988281 117.757812 C 110.640625 81.574219 126.082031 47.210938 120.054688 12.976562 L 162.117188 12.976562 C 161.371094 54.054688 153.164062 67.097656 139.945312 87.945312 Z M 18.785156 12.976562 L 62.203125 12.976562 C 60.304688 44.046875 51.007812 66.636719 16.257812 82.074219 C 14.960938 82.648438 13.8125 83.171875 12.550781 83.734375 L 12.550781 19.207031 C 12.550781 18.800781 12.59375 18.394531 12.671875 17.992188 C 12.753906 17.59375 12.871094 17.203125 13.027344 16.824219 C 13.183594 16.445312 13.378906 16.085938 13.605469 15.746094 C 13.832031 15.40625 14.089844 15.09375 14.378906 14.804688 C 14.667969 14.515625 14.984375 14.257812 15.324219 14.027344 C 15.664062 13.800781 16.023438 13.609375 16.402344 13.453125 C 16.78125 13.296875 17.167969 13.175781 17.570312 13.097656 C 17.972656 13.015625 18.378906 12.976562 18.785156 12.976562 Z M 12.550781 269.769531 C 23.042969 242.910156 53.832031 209.140625 83.65625 176.457031 C 95.996094 162.933594 108.535156 149.179688 119.996094 135.582031 C 100.105469 205.722656 118.292969 280.316406 175.054688 362.023438 L 130.214844 362.023438 C 126.601562 343.125 121.433594 324.660156 114.710938 306.628906 C 104.675781 279.921875 97.628906 252.449219 93.566406 224.210938 C 93.5 223.609375 93.351562 223.035156 93.117188 222.476562 C 92.882812 221.921875 92.574219 221.410156 92.191406 220.945312 C 91.808594 220.480469 91.371094 220.078125 90.871094 219.738281 C 90.371094 219.398438 89.835938 219.140625 89.261719 218.957031 C 88.6875 218.773438 88.097656 218.675781 87.496094 218.664062 C 86.890625 218.652344 86.300781 218.726562 85.71875 218.886719 C 85.136719 219.046875 84.589844 219.285156 84.078125 219.605469 C 83.566406 219.921875 83.109375 220.308594 82.710938 220.757812 C 74.472656 230.894531 66.832031 241.464844 59.792969 252.464844 C 52.75 263.46875 46.355469 274.832031 40.601562 286.558594 C 34.847656 298.285156 29.773438 310.296875 25.382812 322.597656 C 20.988281 334.894531 17.304688 347.40625 14.328125 360.121094 C 13.761719 359.542969 13.324219 358.878906 13.015625 358.128906 C 12.707031 357.382812 12.554688 356.601562 12.550781 355.792969 Z M 81.015625 304.703125 C 80.890625 304.085938 80.679688 303.503906 80.378906 302.949219 C 80.078125 302.398438 79.703125 301.902344 79.253906 301.460938 C 78.800781 301.023438 78.296875 300.660156 77.734375 300.375 C 77.175781 300.089844 76.585938 299.894531 75.964844 299.785156 C 75.34375 299.679688 74.722656 299.664062 74.097656 299.746094 C 73.476562 299.828125 72.878906 299.996094 72.304688 300.257812 C 71.734375 300.523438 71.214844 300.863281 70.746094 301.28125 C 70.277344 301.699219 69.878906 302.179688 69.554688 302.71875 C 64.300781 311.824219 60.042969 321.371094 56.78125 331.363281 C 53.519531 341.355469 51.320312 351.574219 50.1875 362.023438 L 26.648438 362.023438 C 29.34375 351.074219 32.558594 340.28125 36.296875 329.644531 C 40.035156 319.007812 44.28125 308.578125 49.03125 298.351562 C 53.78125 288.128906 59.015625 278.15625 64.734375 268.4375 C 70.453125 258.71875 76.628906 249.300781 83.261719 240.183594 C 87.96875 264.175781 94.511719 287.652344 102.898438 310.621094 C 109.105469 327.382812 114.011719 344.519531 117.617188 362.023438 L 92.480469 362.023438 Z M 79.765625 362.023438 L 62.699219 362.023438 C 64.03125 349.246094 67.261719 336.964844 72.394531 325.1875 Z M 255.714844 362.023438 L 240.949219 362.023438 C 234.265625 348.101562 226.859375 334.570312 218.730469 321.429688 C 218.523438 321.082031 218.277344 320.753906 218.003906 320.453125 C 217.730469 320.148438 217.429688 319.875 217.101562 319.632812 C 216.769531 319.390625 216.421875 319.179688 216.054688 319.007812 C 215.683594 318.832031 215.300781 318.695312 214.90625 318.597656 C 214.507812 318.496094 214.105469 318.4375 213.699219 318.417969 C 213.289062 318.398438 212.882812 318.417969 212.480469 318.476562 C 212.074219 318.535156 211.679688 318.632812 211.296875 318.769531 C 210.910156 318.90625 210.542969 319.082031 210.191406 319.289062 C 209.839844 319.5 209.515625 319.742188 209.210938 320.015625 C 208.90625 320.289062 208.632812 320.589844 208.390625 320.917969 C 208.144531 321.246094 207.9375 321.59375 207.761719 321.960938 C 207.585938 322.332031 207.445312 322.714844 207.347656 323.109375 C 207.246094 323.503906 207.183594 323.90625 207.164062 324.316406 C 207.140625 324.722656 207.160156 325.128906 207.21875 325.535156 C 207.277344 325.9375 207.375 326.332031 207.511719 326.71875 C 207.648438 327.101562 207.820312 327.472656 208.027344 327.820312 C 214.566406 338.761719 221.238281 350.039062 227.148438 362.023438 L 190.386719 362.023438 C 120.039062 264.148438 106.429688 177.445312 148.925781 97.0625 L 150.476562 94.617188 C 163.90625 73.441406 173.746094 57.804688 174.578125 12.976562 L 227.464844 12.976562 C 220.339844 28.320312 212.339844 43.195312 203.460938 57.597656 C 183.171875 91.699219 162.191406 126.96875 162.191406 187.5 C 162.101562 197.585938 162.695312 207.632812 163.976562 217.636719 C 165.261719 227.640625 167.21875 237.511719 169.851562 247.25 C 172.484375 256.984375 175.765625 266.5 179.699219 275.785156 C 183.632812 285.074219 188.179688 294.050781 193.339844 302.71875 C 193.539062 303.078125 193.769531 303.417969 194.035156 303.730469 C 194.296875 304.046875 194.589844 304.332031 194.910156 304.589844 C 195.230469 304.847656 195.574219 305.070312 195.9375 305.257812 C 196.304688 305.449219 196.683594 305.597656 197.078125 305.714844 C 197.472656 305.828125 197.875 305.902344 198.285156 305.9375 C 198.691406 305.972656 199.101562 305.964844 199.511719 305.917969 C 199.917969 305.871094 200.316406 305.789062 200.710938 305.660156 C 201.101562 305.535156 201.476562 305.375 201.835938 305.175781 C 202.195312 304.976562 202.53125 304.742188 202.84375 304.476562 C 203.15625 304.210938 203.441406 303.917969 203.695312 303.59375 C 203.949219 303.273438 204.171875 302.929688 204.359375 302.5625 C 204.546875 302.199219 204.695312 301.816406 204.808594 301.421875 C 204.917969 301.027344 204.992188 300.625 205.023438 300.214844 C 205.054688 299.804688 205.046875 299.398438 205 298.988281 C 204.949219 298.582031 204.863281 298.183594 204.734375 297.792969 C 204.605469 297.402344 204.441406 297.027344 204.238281 296.667969 C 199.347656 288.457031 195.035156 279.953125 191.300781 271.152344 C 187.570312 262.351562 184.457031 253.339844 181.957031 244.113281 C 179.457031 234.886719 177.59375 225.535156 176.375 216.054688 C 175.152344 206.578125 174.582031 197.058594 174.660156 187.5 C 174.660156 130.394531 193.855469 98.128906 214.175781 63.96875 C 224.351562 47.609375 233.320312 30.609375 241.082031 12.976562 L 255.714844 12.976562 C 256.125 12.976562 256.53125 13.015625 256.929688 13.097656 C 257.332031 13.175781 257.722656 13.296875 258.101562 13.453125 C 258.476562 13.609375 258.835938 13.800781 259.175781 14.027344 C 259.519531 14.257812 259.832031 14.515625 260.121094 14.804688 C 260.410156 15.09375 260.667969 15.40625 260.898438 15.746094 C 261.125 16.085938 261.316406 16.445312 261.472656 16.824219 C 261.628906 17.203125 261.75 17.59375 261.828125 17.992188 C 261.910156 18.394531 261.949219 18.800781 261.949219 19.207031 L 261.949219 60.78125 L 261.335938 61.609375 C 237.113281 94.253906 212.070312 128.007812 212.070312 187.5 C 212.070312 247.128906 237.199219 280.929688 261.503906 313.621094 L 261.949219 314.222656 L 261.949219 355.792969 C 261.949219 356.199219 261.910156 356.605469 261.828125 357.007812 C 261.75 357.410156 261.628906 357.796875 261.472656 358.175781 C 261.316406 358.554688 261.125 358.914062 260.898438 359.253906 C 260.671875 359.59375 260.410156 359.90625 260.121094 360.195312 C 259.832031 360.488281 259.519531 360.746094 259.179688 360.972656 C 258.835938 361.199219 258.476562 361.390625 258.101562 361.546875 C 257.722656 361.707031 257.332031 361.824219 256.929688 361.902344 C 256.53125 361.984375 256.125 362.023438 255.714844 362.023438 Z M 255.714844 362.023438 " fill-opacity="1" fill-rule="nonzero"/></g></svg>