<svg xmlns="http://www.w3.org/2000/svg" xmlns:xlink="http://www.w3.org/1999/xlink" width="500" zoomAndPan="magnify" viewBox="0 0 375 374.999991" height="500" preserveAspectRatio="xMidYMid meet" version="1.0"><defs><g/><clipPath id="8a06c9f487"><path d="M 121.363281 4.027344 L 253.363281 4.027344 L 253.363281 51.9375 L 121.363281 51.9375 Z M 121.363281 4.027344 " clip-rule="nonzero"/></clipPath></defs><path stroke-linecap="butt" transform="matrix(0.530448, -0.530448, 0.53033, 0.53033, 56.59358, 314.750195)" fill="none" stroke-linejoin="miter" d="M 0.000343622 2.496948 L 489.897593 2.500631 " stroke="#dad6bc" stroke-width="5" stroke-opacity="1" stroke-miterlimit="4"/><path stroke-linecap="butt" transform="matrix(0.530365, 0.530365, -0.53033, 0.53033, 59.245594, 54.945596)" fill="none" stroke-linejoin="miter" d="M -0.00347931 2.499915 L 478.978577 2.499915 " stroke="#dad6bc" stroke-width="5" stroke-opacity="1" stroke-miterlimit="4"/><g clip-path="url(#8a06c9f487)"><path fill="#dad6bc" d="M 183.835938 40.8125 L 153.839844 40.8125 C 160.042969 43.179688 165.40625 44.050781 169.945312 44.050781 C 176.035156 44.050781 180.652344 42.480469 183.835938 40.8125 Z M 235.816406 37.011719 C 236.21875 36.394531 236.453125 35.65625 236.453125 34.863281 C 236.453125 32.957031 235.101562 31.367188 233.3125 31.007812 C 233.269531 30.152344 233.105469 29.269531 232.746094 28.457031 C 231.441406 25.546875 227.078125 18.058594 221.796875 11.230469 C 221.796875 11.230469 219.75 9.589844 220.710938 6.824219 C 221.671875 4.0625 220.867188 3.605469 218.578125 4.34375 C 216.289062 5.082031 210.820312 7.898438 211.621094 10.785156 C 212.425781 13.671875 214.867188 18.546875 219.859375 25.523438 C 219.859375 25.523438 222.941406 29.476562 222.339844 31.164062 C 221.742188 32.855469 220.003906 33.050781 218.386719 33.050781 L 211.75 33.050781 C 211.214844 33.050781 210.78125 33.488281 210.78125 34.027344 L 210.78125 34.042969 L 207.644531 34.042969 C 198.070312 34.042969 192.160156 31.25 188.859375 29.894531 C 188.347656 29.683594 187.859375 29.488281 187.375 29.304688 L 199.542969 18.898438 C 199.988281 18.515625 200.242188 17.675781 200.148438 16.984375 L 199.40625 12.8125 C 199.265625 12.160156 198.695312 12.027344 197.914062 12.691406 L 180.167969 27.875 C 179.984375 27.863281 179.796875 27.851562 179.601562 27.84375 C 181.09375 26.574219 182.671875 24.941406 183.875 23.082031 C 184.71875 21.769531 185.378906 20.335938 185.660156 18.828125 C 185.945312 17.320312 185.835938 15.730469 185.15625 14.179688 C 184.515625 12.726562 183.5 11.535156 182.261719 10.726562 C 180.46875 9.550781 178.195312 9.191406 176.015625 10.011719 C 174.800781 10.46875 173.824219 11.292969 173.167969 12.3125 C 172.199219 13.8125 171.925781 15.75 172.59375 17.558594 C 172.964844 18.566406 173.644531 19.378906 174.476562 19.921875 C 176.675781 21.117188 179.296875 19.871094 179.164062 19.519531 C 179.164062 19.519531 177.113281 19.945312 175.214844 18.773438 C 174.613281 18.382812 174.132812 17.808594 173.867188 17.082031 C 173.351562 15.691406 173.5625 14.210938 174.304688 13.054688 C 174.808594 12.273438 175.554688 11.644531 176.492188 11.292969 C 178.253906 10.628906 180.050781 10.914062 181.523438 11.871094 C 182.535156 12.53125 183.378906 13.515625 183.914062 14.734375 C 184.476562 16.019531 184.566406 17.292969 184.328125 18.574219 C 184.089844 19.855469 183.515625 21.132812 182.738281 22.335938 C 181.3125 24.554688 179.214844 26.5 177.503906 27.773438 C 177.035156 27.765625 176.542969 27.761719 176.023438 27.761719 C 168.730469 27.761719 167.632812 28.949219 163.230469 31.90625 C 161.179688 33.28125 159.050781 33.839844 157.359375 34.042969 L 156.839844 34.042969 L 156.839844 30.660156 L 160.375 24.089844 C 160.320312 20.582031 157.480469 17.75 153.980469 17.75 C 150.480469 17.75 147.640625 20.582031 147.585938 24.089844 L 151.117188 30.660156 L 151.117188 34.042969 L 138.269531 34.042969 L 138.269531 40.207031 L 235.816406 40.207031 Z M 131.695312 43.652344 C 132.660156 43.652344 133.675781 43.621094 134.746094 43.550781 C 136.996094 43.398438 139.351562 43.320312 141.777344 43.320312 C 150.589844 43.320312 160.378906 44.320312 169.734375 46.257812 C 170.914062 46.503906 172.199219 46.617188 173.566406 46.617188 C 179.664062 46.621094 187.328125 44.320312 193.929688 41.164062 C 194.171875 41.050781 194.414062 40.933594 194.652344 40.8125 L 185.046875 40.8125 C 181.785156 42.695312 176.769531 44.636719 169.945312 44.636719 C 164.992188 44.636719 159.097656 43.613281 152.25 40.8125 L 121.363281 40.8125 L 121.363281 42.203125 C 121.605469 42.277344 121.871094 42.359375 122.152344 42.4375 C 124.308594 43.042969 127.511719 43.652344 131.695312 43.652344 Z M 214.855469 40.8125 C 220.636719 42.511719 227.082031 43.101562 233.195312 43.101562 C 241.28125 43.101562 248.773438 42.078125 253.363281 41.289062 L 253.363281 40.8125 Z M 131.664062 51.9375 L 161.144531 51.9375 C 155.613281 50.941406 150.550781 50.570312 146.085938 50.570312 C 140.082031 50.570312 135.167969 51.238281 131.664062 51.9375 Z M 212.925781 40.8125 L 195.945312 40.8125 C 195.367188 41.113281 194.777344 41.40625 194.179688 41.691406 C 187.519531 44.875 179.804688 47.199219 173.566406 47.203125 C 172.167969 47.203125 170.84375 47.085938 169.617188 46.832031 C 160.300781 44.902344 150.546875 43.90625 141.777344 43.90625 C 139.363281 43.90625 137.019531 43.980469 134.785156 44.132812 C 133.703125 44.207031 132.671875 44.238281 131.695312 44.242188 C 127.027344 44.242188 123.550781 43.492188 121.363281 42.8125 L 121.363281 49.640625 C 125.476562 48.765625 133.257812 47.519531 144.300781 47.519531 C 150.492188 47.519531 157.710938 47.914062 165.882812 48.980469 C 177.644531 50.515625 187.664062 51.042969 195.996094 51.042969 C 209.316406 51.042969 218.308594 49.695312 223.195312 48.980469 C 223.351562 48.957031 223.5 49.066406 223.523438 49.226562 C 223.546875 49.386719 223.4375 49.535156 223.277344 49.558594 C 218.390625 50.277344 209.351562 51.628906 195.996094 51.628906 C 187.640625 51.628906 177.59375 51.101562 165.808594 49.558594 C 157.664062 48.496094 150.46875 48.105469 144.300781 48.105469 C 133.195312 48.105469 125.410156 49.371094 121.363281 50.242188 L 121.363281 51.9375 L 128.96875 51.9375 C 132.457031 51.074219 138.386719 49.988281 146.085938 49.988281 C 151.355469 49.988281 157.453125 50.5 164.164062 51.9375 L 246.8125 51.9375 C 243.277344 51.324219 238.667969 50.476562 232.671875 49.300781 C 224.597656 47.71875 216.480469 47.222656 209.492188 47.222656 C 200.753906 47.222656 193.78125 47.996094 190.847656 48.382812 C 189.867188 48.511719 189.339844 48.597656 189.339844 48.597656 C 189.179688 48.625 189.03125 48.515625 189.003906 48.355469 C 188.980469 48.195312 189.085938 48.042969 189.246094 48.019531 C 189.257812 48.019531 197.800781 46.636719 209.492188 46.636719 C 216.507812 46.636719 224.660156 47.132812 232.785156 48.726562 C 240.941406 50.324219 246.535156 51.320312 250.332031 51.9375 L 253.363281 51.9375 L 253.363281 48.914062 C 252.132812 49.078125 250.683594 49.175781 248.976562 49.175781 C 244.496094 49.175781 238.21875 48.511719 229.398438 46.664062 C 220.875 44.871094 213.363281 44.230469 206.964844 44.230469 C 192.585938 44.230469 183.832031 47.476562 181.886719 48.277344 C 181.609375 48.394531 181.472656 48.457031 181.472656 48.457031 C 181.328125 48.523438 181.15625 48.460938 181.089844 48.3125 C 181.019531 48.167969 181.085938 47.992188 181.230469 47.925781 C 181.261719 47.910156 190.433594 43.644531 206.964844 43.644531 C 213.402344 43.644531 220.953125 44.289062 229.519531 46.089844 C 238.308594 47.933594 244.550781 48.589844 248.976562 48.589844 C 250.703125 48.589844 252.148438 48.488281 253.363281 48.324219 L 253.363281 41.882812 C 248.742188 42.675781 241.269531 43.683594 233.195312 43.683594 C 226.421875 43.683594 219.226562 42.972656 212.925781 40.8125 " fill-opacity="1" fill-rule="nonzero"/></g><g fill="#dad6bc" fill-opacity="1"><g transform="translate(153.395428, 371.176968)"><g><path d="M 47.929688 -59.273438 C 56.257812 -53.867188 60.953125 -38.71875 58.121094 -27.464844 L 56.4375 -21.527344 L 55.992188 -21.527344 L 48.375 -41.996094 L 52.09375 -46.601562 L 52.09375 -47.132812 L 29.589844 -47.132812 L 29.589844 -46.601562 C 32.871094 -42.261719 35.527344 -34.90625 32.515625 -25.515625 L 31.363281 -21.441406 L 30.921875 -21.441406 L 20.199219 -54.664062 L 24.71875 -59.273438 L 24.71875 -59.804688 L 0.621094 -59.804688 L 0.621094 -59.273438 L 21.796875 1.417969 L 22.679688 1.417969 L 36.679688 -29.503906 L 37.121094 -29.503906 L 49.527344 1.417969 L 50.410156 1.417969 L 71.320312 -59.273438 L 71.320312 -59.804688 L 47.929688 -59.804688 Z M 47.929688 -59.273438 "/></g></g></g><g fill="#dad6bc" fill-opacity="1"><g transform="translate(1.358731, 206.298985)"><g><path d="M 33.785156 -30.40625 C 46.519531 -32.222656 53.359375 -37.769531 53.359375 -45.738281 C 53.359375 -53.359375 46.949219 -58.472656 29.710938 -58.472656 L 2.773438 -58.472656 L 2.773438 -57.953125 L 7.449219 -53.449219 L 7.449219 -5.023438 L 2.773438 -0.519531 L 2.773438 0 L 28.066406 0 C 47.210938 0 56.394531 -9.09375 56.394531 -17.410156 C 56.394531 -24.949219 51.023438 -31.53125 33.695312 -29.800781 Z M 26.941406 -57 C 35.601562 -57 36.382812 -50.589844 36.382812 -43.832031 C 36.382812 -35.34375 34.5625 -30.925781 26.765625 -30.839844 L 24.167969 -30.839844 L 24.167969 -57 Z M 26.941406 -1.472656 C 25.035156 -1.386719 24.863281 -1.472656 24.167969 -1.558594 L 24.167969 -29.277344 L 27.027344 -29.277344 C 34.21875 -29.277344 38.289062 -25.988281 38.289062 -15.679688 C 38.289062 -5.890625 34.5625 -1.734375 26.941406 -1.472656 Z M 26.941406 -1.472656 "/></g></g></g><g fill="#dad6bc" fill-opacity="1"><g transform="translate(316.284533, 205.463747)"><g><path d="M 32.425781 0.972656 C 34.554688 0.972656 47.222656 -8.417969 52.804688 -13.113281 L 52.449219 -13.644531 C 49.703125 -12.667969 47.046875 -12.050781 44.210938 -12.050781 C 22.945312 -12.050781 14.882812 -33.578125 14.882812 -46.335938 C 14.972656 -53.777344 18.339844 -56.703125 21.707031 -56.703125 C 25.515625 -56.703125 33.222656 -53.691406 38.183594 -36.148438 L 38.71875 -35.96875 L 53.246094 -50.234375 C 50.234375 -55.816406 41.90625 -61.042969 31.007812 -61.042969 C 24.808594 -61.042969 2.304688 -55.375 2.214844 -30.476562 C 2.125 -11.25 15.503906 0.355469 32.425781 0.972656 Z M 32.425781 0.972656 "/></g></g></g></svg>