<svg xmlns="http://www.w3.org/2000/svg" xmlns:xlink="http://www.w3.org/1999/xlink" width="1080" zoomAndPan="magnify" viewBox="0 0 810 809.999993" height="1080" preserveAspectRatio="xMidYMid meet" version="1.0"><defs><g/></defs><path fill="#dad6bc" d="M 366.257812 2.234375 C 271.214844 12.039062 185.65625 52.519531 118.925781 119.257812 C 54.878906 183.304688 16.292969 261.898438 3 355.519531 C 0.3125 374.179688 0.3125 436.488281 3 455.148438 C 16.441406 548.925781 54.871094 627.207031 118.917969 691.410156 C 183.125 755.457031 261.402344 793.890625 355.183594 807.328125 C 373.839844 810.015625 436.148438 810.015625 454.808594 807.328125 C 519.960938 797.996094 575.3125 777.597656 627.972656 743.125 C 670.988281 714.976562 714.636719 671.324219 742.785156 628.3125 C 777.257812 575.492188 797.65625 520.300781 806.992188 455.148438 C 809.679688 436.488281 809.679688 374.179688 806.992188 355.519531 C 793.550781 261.742188 755.121094 183.460938 691.074219 119.257812 C 628.449219 56.636719 551.910156 18.363281 461.925781 4.445312 C 442.003906 1.441406 386.496094 0.015625 366.257812 2.234375 Z M 620.074219 401.378906 L 620.074219 550.824219 L 189.925781 550.824219 L 189.925781 251.9375 L 620.074219 251.9375 Z M 620.074219 401.378906 " fill-opacity="1" fill-rule="nonzero"/><path fill="#dad6bc" d="M 215.542969 286.253906 L 216.023438 295.421875 L 310.59375 354.09375 L 405.3125 412.921875 L 500.042969 353.460938 L 594.769531 294.152344 L 594.769531 277.234375 L 215.074219 277.234375 Z M 215.542969 286.253906 " fill-opacity="1" fill-rule="nonzero"/><path fill="#dad6bc" d="M 215.230469 414.820312 C 215.230469 464.316406 215.542969 504.964844 215.867188 504.964844 C 216.96875 504.964844 308.375 388.410156 309.488281 385.886719 C 310.28125 383.667969 305.695312 380.667969 231.523438 334.652344 L 215.238281 324.691406 L 215.238281 414.820312 Z M 215.230469 414.820312 " fill-opacity="1" fill-rule="nonzero"/><path fill="#dad6bc" d="M 546.847656 354.09375 C 520.910156 370.222656 499.882812 383.984375 500.199219 384.617188 C 500.511719 385.253906 521.703125 412.453125 547.328125 445.03125 L 593.976562 504.492188 L 594.449219 459.582031 C 594.605469 434.914062 594.605469 394.585938 594.449219 369.761719 L 593.976562 324.535156 Z M 546.847656 354.09375 " fill-opacity="1" fill-rule="nonzero"/><path fill="#dad6bc" d="M 283.070312 461.15625 L 233.253906 524.726562 L 319.128906 525.207031 C 366.414062 525.363281 443.902344 525.363281 491.34375 525.207031 L 577.6875 524.726562 L 529.929688 463.84375 C 503.675781 430.320312 481.0625 401.695312 479.644531 400.277344 C 477.113281 397.746094 474.902344 398.847656 442.953125 419.089844 C 424.292969 430.789062 407.84375 440.757812 406.582031 441.230469 C 405.15625 441.542969 388.871094 432.375 370.207031 420.832031 C 351.546875 409.128906 335.410156 399.164062 334.621094 398.691406 C 333.679688 398.214844 310.585938 426.363281 283.070312 461.15625 Z M 283.070312 461.15625 " fill-opacity="1" fill-rule="nonzero"/><g fill="#000000" fill-opacity="1"><g transform="translate(190.044409, 215.875476)"><g><path d="M -49.890625 -77.75 L -42.71875 -84.1875 L 12.640625 -22.5625 L 50.625 -56.6875 L 56.203125 -50.484375 L 11.046875 -9.921875 Z M -49.890625 -77.75 "/></g></g></g><g fill="#000000" fill-opacity="1"><g transform="translate(238.329518, 170.637104)"><g><path d="M 49.046875 -62 L -1.4375 -34.859375 C 2.382812 -28.835938 7.515625 -25.066406 13.953125 -23.546875 C 20.390625 -22.035156 26.9375 -23.066406 33.59375 -26.640625 C 37.34375 -28.660156 40.425781 -31.179688 42.84375 -34.203125 C 45.257812 -37.222656 46.914062 -40.648438 47.8125 -44.484375 L 55.234375 -41.671875 C 54.285156 -37.015625 52.253906 -32.765625 49.140625 -28.921875 C 46.035156 -25.085938 42.078125 -21.875 37.265625 -19.28125 C 31.054688 -15.945312 24.851562 -14.316406 18.65625 -14.390625 C 12.457031 -14.460938 6.765625 -16.113281 1.578125 -19.34375 C -3.597656 -22.570312 -7.769531 -27.132812 -10.9375 -33.03125 C -14.101562 -38.914062 -15.660156 -44.878906 -15.609375 -50.921875 C -15.554688 -56.960938 -13.988281 -62.484375 -10.90625 -67.484375 C -7.832031 -72.492188 -3.503906 -76.5 2.078125 -79.5 C 7.660156 -82.5 13.367188 -83.890625 19.203125 -83.671875 C 25.035156 -83.460938 30.457031 -81.722656 35.46875 -78.453125 C 40.476562 -75.179688 44.585938 -70.566406 47.796875 -64.609375 Z M 5.84375 -72.5 C 0.03125 -69.375 -3.84375 -64.894531 -5.78125 -59.0625 C -7.726562 -53.238281 -7.375 -47.203125 -4.71875 -40.953125 L 38.078125 -63.953125 C 34.347656 -69.628906 29.515625 -73.265625 23.578125 -74.859375 C 17.640625 -76.453125 11.726562 -75.664062 5.84375 -72.5 Z M 5.84375 -72.5 "/></g></g></g><g fill="#000000" fill-opacity="1"><g transform="translate(299.697311, 138.069619)"><g><path d="M 45.71875 -18.0625 C 44.5 -16.0625 42.78125 -14.296875 40.5625 -12.765625 C 38.351562 -11.242188 35.914062 -10.082031 33.25 -9.28125 C 27.09375 -7.4375 21.851562 -7.679688 17.53125 -10.015625 C 13.207031 -12.347656 10.132812 -16.550781 8.3125 -22.625 L -3.578125 -62.296875 L -15.296875 -58.78125 L -17.546875 -66.265625 L -5.828125 -69.78125 L -10.125 -84.140625 L -1.265625 -86.796875 L 3.03125 -72.4375 L 23 -78.421875 L 25.25 -70.9375 L 5.28125 -64.953125 L 17.015625 -25.78125 C 18.191406 -21.863281 20.0625 -19.175781 22.625 -17.71875 C 25.195312 -16.269531 28.3125 -16.09375 31.96875 -17.1875 C 33.789062 -17.738281 35.46875 -18.5625 37 -19.65625 C 38.53125 -20.75 39.757812 -22.023438 40.6875 -23.484375 Z M 45.71875 -18.0625 "/></g></g></g><g fill="#000000" fill-opacity="1"><g transform="translate(345.106147, 124.943919)"><g><path d="M -6.53125 -91.390625 L 1.546875 -92.78125 L 6.71875 -58.78125 L -0.09375 -57.609375 Z M -6.53125 -91.390625 "/></g></g></g><g fill="#000000" fill-opacity="1"><g transform="translate(364.616004, 119.852116)"><g><path d="M 31.265625 -0.328125 C 25.703125 -0.148438 20.359375 -0.785156 15.234375 -2.234375 C 10.117188 -3.679688 6.085938 -5.578125 3.140625 -7.921875 L 7.09375 -15.34375 C 10.019531 -13.175781 13.671875 -11.441406 18.046875 -10.140625 C 22.429688 -8.847656 26.972656 -8.273438 31.671875 -8.421875 C 37.921875 -8.617188 42.507812 -9.738281 45.4375 -11.78125 C 48.363281 -13.832031 49.773438 -16.632812 49.671875 -20.1875 C 49.585938 -22.707031 48.695312 -24.65625 47 -26.03125 C 45.3125 -27.414062 43.195312 -28.4375 40.65625 -29.09375 C 38.125 -29.757812 34.765625 -30.375 30.578125 -30.9375 C 24.984375 -31.8125 20.476562 -32.734375 17.0625 -33.703125 C 13.644531 -34.679688 10.695312 -36.4375 8.21875 -38.96875 C 5.75 -41.5 4.445312 -45.0625 4.3125 -49.65625 C 4.125 -55.382812 6.359375 -60.148438 11.015625 -63.953125 C 15.671875 -67.753906 22.253906 -69.785156 30.765625 -70.046875 C 35.191406 -70.191406 39.632812 -69.742188 44.09375 -68.703125 C 48.5625 -67.671875 52.257812 -66.242188 55.1875 -64.421875 L 51.375 -56.875 C 45.625 -60.601562 38.835938 -62.34375 31.015625 -62.09375 C 25.109375 -61.90625 20.691406 -60.722656 17.765625 -58.546875 C 14.847656 -56.367188 13.441406 -53.585938 13.546875 -50.203125 C 13.628906 -47.609375 14.535156 -45.554688 16.265625 -44.046875 C 18.003906 -42.535156 20.144531 -41.453125 22.6875 -40.796875 C 25.238281 -40.140625 28.738281 -39.488281 33.1875 -38.84375 C 38.6875 -37.976562 43.101562 -37.070312 46.4375 -36.125 C 49.769531 -35.1875 52.644531 -33.492188 55.0625 -31.046875 C 57.488281 -28.609375 58.769531 -25.175781 58.90625 -20.75 C 59.09375 -14.769531 56.742188 -9.9375 51.859375 -6.25 C 46.984375 -2.570312 40.117188 -0.597656 31.265625 -0.328125 Z M 31.265625 -0.328125 "/></g></g></g><g fill="#000000" fill-opacity="1"><g transform="translate(421.379572, 118.660082)"><g/></g></g><g fill="#000000" fill-opacity="1"><g transform="translate(447.428587, 118.329271)"><g><path d="M 93.515625 -42.109375 L 75.25 15.21875 C 71.71875 26.3125 66.390625 33.660156 59.265625 37.265625 C 52.148438 40.878906 43.132812 40.945312 32.21875 37.46875 C 26.175781 35.550781 20.726562 32.835938 15.875 29.328125 C 11.019531 25.828125 7.394531 21.960938 5 17.734375 L 11.609375 12.453125 C 13.859375 16.265625 16.988281 19.675781 21 22.6875 C 25.007812 25.695312 29.5 27.988281 34.46875 29.5625 C 42.738281 32.195312 49.429688 32.207031 54.546875 29.59375 C 59.660156 26.988281 63.507812 21.632812 66.09375 13.53125 L 68.75 5.21875 C 64.6875 8.488281 60.097656 10.492188 54.984375 11.234375 C 49.878906 11.972656 44.640625 11.484375 39.265625 9.765625 C 33.148438 7.816406 28.015625 4.695312 23.859375 0.40625 C 19.710938 -3.875 16.984375 -8.882812 15.671875 -14.625 C 14.359375 -20.375 14.675781 -26.304688 16.625 -32.421875 C 18.582031 -38.546875 21.75 -43.554688 26.125 -47.453125 C 30.507812 -51.347656 35.601562 -53.828125 41.40625 -54.890625 C 47.21875 -55.953125 53.222656 -55.5 59.421875 -53.53125 C 64.972656 -51.757812 69.625 -49.046875 73.375 -45.390625 C 77.132812 -41.734375 79.710938 -37.359375 81.109375 -32.265625 L 85.09375 -44.796875 Z M 42.625 2.234375 C 47.34375 3.734375 51.925781 4.078125 56.375 3.265625 C 60.832031 2.453125 64.695312 0.5625 67.96875 -2.40625 C 71.238281 -5.375 73.609375 -9.175781 75.078125 -13.8125 C 76.554688 -18.445312 76.8125 -22.898438 75.84375 -27.171875 C 74.882812 -31.441406 72.84375 -35.191406 69.71875 -38.421875 C 66.59375 -41.648438 62.632812 -44.03125 57.84375 -45.5625 C 53.132812 -47.0625 48.582031 -47.414062 44.1875 -46.625 C 39.789062 -45.84375 35.957031 -43.960938 32.6875 -40.984375 C 29.414062 -38.015625 27.039062 -34.210938 25.5625 -29.578125 C 24.09375 -24.941406 23.832031 -20.46875 24.78125 -16.15625 C 25.726562 -11.84375 27.757812 -8.070312 30.875 -4.84375 C 34 -1.625 37.914062 0.734375 42.625 2.234375 Z M 42.625 2.234375 "/></g></g></g><g fill="#000000" fill-opacity="1"><g transform="translate(521.903196, 141.22295)"><g><path d="M 78.078125 12.453125 L 29.703125 -18.3125 C 26.328125 -12.03125 25.550781 -5.710938 27.375 0.640625 C 29.195312 7.003906 33.296875 12.210938 39.671875 16.265625 C 43.265625 18.554688 46.96875 20.015625 50.78125 20.640625 C 54.601562 21.273438 58.398438 21.039062 62.171875 19.9375 L 63.359375 27.796875 C 58.835938 29.242188 54.140625 29.550781 49.265625 28.71875 C 44.398438 27.882812 39.660156 26 35.046875 23.0625 C 29.097656 19.28125 24.640625 14.664062 21.671875 9.21875 C 18.710938 3.78125 17.367188 -1.984375 17.640625 -8.078125 C 17.921875 -14.179688 19.859375 -20.050781 23.453125 -25.6875 C 27.035156 -31.332031 31.472656 -35.609375 36.765625 -38.515625 C 42.066406 -41.421875 47.648438 -42.757812 53.515625 -42.53125 C 59.390625 -42.300781 65 -40.484375 70.34375 -37.078125 C 75.695312 -33.679688 79.707031 -29.382812 82.375 -24.1875 C 85.039062 -18.988281 86.171875 -13.398438 85.765625 -7.421875 C 85.367188 -1.453125 83.351562 4.390625 79.71875 10.109375 Z M 66.078125 -30.359375 C 60.515625 -33.898438 54.710938 -35.09375 48.671875 -33.9375 C 42.640625 -32.789062 37.550781 -29.523438 33.40625 -24.140625 L 74.40625 1.9375 C 77.53125 -4.101562 78.332031 -10.097656 76.8125 -16.046875 C 75.300781 -22.003906 71.722656 -26.773438 66.078125 -30.359375 Z M 66.078125 -30.359375 "/></g></g></g><g fill="#000000" fill-opacity="1"><g transform="translate(580.324284, 178.821091)"><g><path d="M 38.125 31.046875 C 35.78125 30.960938 33.398438 30.328125 30.984375 29.140625 C 28.566406 27.953125 26.359375 26.390625 24.359375 24.453125 C 19.742188 19.992188 17.390625 15.304688 17.296875 10.390625 C 17.210938 5.484375 19.378906 0.75 23.796875 -3.8125 L 52.578125 -33.59375 L 43.78125 -42.09375 L 49.21875 -47.71875 L 58.015625 -39.21875 L 68.421875 -49.984375 L 75.078125 -43.5625 L 64.671875 -32.796875 L 79.65625 -18.296875 L 74.21875 -12.671875 L 59.234375 -27.171875 L 30.8125 2.234375 C 27.96875 5.171875 26.539062 8.113281 26.53125 11.0625 C 26.519531 14.007812 27.890625 16.8125 30.640625 19.46875 C 32.015625 20.789062 33.550781 21.851562 35.25 22.65625 C 36.957031 23.457031 38.671875 23.90625 40.390625 24 Z M 38.125 31.046875 "/></g></g></g><g fill="#000000" fill-opacity="1"><g transform="translate(117.636475, 646.964177)"><g><path d="M 57.984375 -38.6875 L 64.453125 -32.078125 L 15.484375 15.828125 L 9.015625 9.21875 Z M 71.96875 -45.796875 C 70.625 -47.160156 69.957031 -48.765625 69.96875 -50.609375 C 69.988281 -52.453125 70.65625 -54.015625 71.96875 -55.296875 C 73.207031 -56.503906 74.75 -57.097656 76.59375 -57.078125 C 78.4375 -57.054688 80.03125 -56.363281 81.375 -55 C 82.707031 -53.632812 83.375 -52.046875 83.375 -50.234375 C 83.382812 -48.421875 82.765625 -46.90625 81.515625 -45.6875 C 80.148438 -44.351562 78.550781 -43.695312 76.71875 -43.71875 C 74.882812 -43.738281 73.300781 -44.429688 71.96875 -45.796875 Z M 71.96875 -45.796875 "/></g></g></g><g fill="#000000" fill-opacity="1"><g transform="translate(147.008338, 679.331295)"><g><path d="M 78.84375 -28.828125 C 85.863281 -23.867188 90.007812 -17.882812 91.28125 -10.875 C 92.5625 -3.875 90.445312 3.523438 84.9375 11.328125 L 62.03125 43.78125 L 54.46875 38.453125 L 76.84375 6.75 C 80.945312 0.9375 82.625 -4.519531 81.875 -9.625 C 81.125 -14.726562 78.050781 -19.1875 72.65625 -23 C 66.632812 -27.25 60.601562 -28.820312 54.5625 -27.71875 C 48.519531 -26.613281 43.269531 -22.90625 38.8125 -16.59375 L 18.09375 12.765625 L 10.53125 7.4375 L 50.03125 -48.53125 L 57.265625 -43.421875 L 49.984375 -33.09375 C 54.429688 -35.039062 59.144531 -35.664062 64.125 -34.96875 C 69.113281 -34.28125 74.019531 -32.234375 78.84375 -28.828125 Z M 78.84375 -28.828125 "/></g></g></g><g fill="#000000" fill-opacity="1"><g transform="translate(227.515592, 732.264855)"><g/></g></g><g fill="#000000" fill-opacity="1"><g transform="translate(263.767555, 749.317615)"><g><path d="M 47.9375 10.765625 C 45.8125 11.722656 43.398438 12.210938 40.703125 12.234375 C 38.015625 12.253906 35.347656 11.847656 32.703125 11.015625 C 26.578125 9.078125 22.378906 5.929688 20.109375 1.578125 C 17.847656 -2.773438 17.671875 -7.972656 19.578125 -14.015625 L 32.0625 -53.515625 L 20.390625 -57.203125 L 22.734375 -64.640625 L 34.40625 -60.953125 L 38.921875 -75.234375 L 47.75 -72.453125 L 43.234375 -58.171875 L 63.09375 -51.90625 L 60.75 -44.46875 L 40.890625 -50.734375 L 28.578125 -11.734375 C 27.335938 -7.835938 27.367188 -4.566406 28.671875 -1.921875 C 29.972656 0.710938 32.445312 2.601562 36.09375 3.75 C 37.925781 4.320312 39.78125 4.585938 41.65625 4.546875 C 43.53125 4.503906 45.253906 4.140625 46.828125 3.453125 Z M 47.9375 10.765625 "/></g></g></g><g fill="#000000" fill-opacity="1"><g transform="translate(322.964709, 768.537244)"><g><path d="M 40.578125 5.046875 C 34.015625 4.335938 28.257812 2.210938 23.3125 -1.328125 C 18.375 -4.878906 14.675781 -9.453125 12.21875 -15.046875 C 9.769531 -20.640625 8.90625 -26.757812 9.625 -33.40625 C 10.34375 -40.0625 12.492188 -45.851562 16.078125 -50.78125 C 19.671875 -55.71875 24.253906 -59.367188 29.828125 -61.734375 C 35.410156 -64.109375 41.484375 -64.941406 48.046875 -64.234375 C 54.597656 -63.535156 60.347656 -61.429688 65.296875 -57.921875 C 70.253906 -54.421875 73.9375 -49.878906 76.34375 -44.296875 C 78.757812 -38.710938 79.609375 -32.59375 78.890625 -25.9375 C 78.171875 -19.289062 76.035156 -13.492188 72.484375 -8.546875 C 68.941406 -3.609375 64.375 0.0625 58.78125 2.46875 C 53.195312 4.882812 47.128906 5.742188 40.578125 5.046875 Z M 41.46875 -3.109375 C 46.300781 -2.585938 50.753906 -3.222656 54.828125 -5.015625 C 58.898438 -6.804688 62.234375 -9.613281 64.828125 -13.4375 C 67.429688 -17.257812 69.015625 -21.757812 69.578125 -26.9375 C 70.140625 -32.113281 69.554688 -36.847656 67.828125 -41.140625 C 66.097656 -45.429688 63.429688 -48.882812 59.828125 -51.5 C 56.234375 -54.113281 52.019531 -55.679688 47.1875 -56.203125 C 42.351562 -56.734375 37.894531 -56.101562 33.8125 -54.3125 C 29.726562 -52.519531 26.367188 -49.710938 23.734375 -45.890625 C 21.097656 -42.078125 19.5 -37.582031 18.9375 -32.40625 C 18.375 -27.226562 18.972656 -22.488281 20.734375 -18.1875 C 22.503906 -13.894531 25.191406 -10.441406 28.796875 -7.828125 C 32.410156 -5.210938 36.632812 -3.640625 41.46875 -3.109375 Z M 41.46875 -3.109375 "/></g></g></g><g fill="#000000" fill-opacity="1"><g transform="translate(415.964899, 777.456826)"><g><path d="M 64.140625 -78.40625 L 73.859375 -10.59375 L 65.09375 -9.328125 L 63.3125 -21.703125 C 61.5 -17.234375 58.648438 -13.554688 54.765625 -10.671875 C 50.890625 -7.785156 46.242188 -5.957031 40.828125 -5.1875 C 31.972656 -3.914062 24.632812 -5.382812 18.8125 -9.59375 C 12.988281 -13.8125 9.394531 -20.6875 8.03125 -30.21875 L 2.390625 -69.546875 L 11.546875 -70.859375 L 17.046875 -32.4375 C 18.078125 -25.300781 20.613281 -20.140625 24.65625 -16.953125 C 28.707031 -13.765625 34.003906 -12.640625 40.546875 -13.578125 C 47.679688 -14.597656 53 -17.570312 56.5 -22.5 C 60.007812 -27.425781 61.207031 -33.757812 60.09375 -41.5 L 55 -77.09375 Z M 64.140625 -78.40625 "/></g></g></g><g fill="#000000" fill-opacity="1"><g transform="translate(513.315618, 761.31092)"><g><path d="M 38.59375 -14.703125 C 32.300781 -12.191406 26.125 -11.316406 20.0625 -12.078125 C 14.007812 -12.847656 8.582031 -15.144531 3.78125 -18.96875 C -1.019531 -22.800781 -4.660156 -27.820312 -7.140625 -34.03125 C -9.617188 -40.238281 -10.425781 -46.363281 -9.5625 -52.40625 C -8.695312 -58.457031 -6.332031 -63.84375 -2.46875 -68.5625 C 1.382812 -73.28125 6.457031 -76.894531 12.75 -79.40625 C 18.226562 -81.59375 23.550781 -82.476562 28.71875 -82.0625 C 33.882812 -81.644531 38.539062 -79.878906 42.6875 -76.765625 L 38.015625 -69.84375 C 34.648438 -72.15625 31.046875 -73.453125 27.203125 -73.734375 C 23.359375 -74.023438 19.539062 -73.414062 15.75 -71.90625 C 11.15625 -70.0625 7.429688 -67.378906 4.578125 -63.859375 C 1.734375 -60.335938 0.0390625 -56.269531 -0.5 -51.65625 C -1.050781 -47.050781 -0.363281 -42.332031 1.5625 -37.5 C 3.53125 -32.570312 6.289062 -28.644531 9.84375 -25.71875 C 13.394531 -22.789062 17.414062 -21.03125 21.90625 -20.4375 C 26.40625 -19.851562 30.953125 -20.484375 35.546875 -22.328125 C 39.335938 -23.835938 42.535156 -26 45.140625 -28.8125 C 47.742188 -31.632812 49.472656 -35.035156 50.328125 -39.015625 L 58.46875 -37.21875 C 57.613281 -32.101562 55.4375 -27.609375 51.9375 -23.734375 C 48.4375 -19.859375 43.988281 -16.847656 38.59375 -14.703125 Z M 38.59375 -14.703125 "/></g></g></g><g fill="#000000" fill-opacity="1"><g transform="translate(591.692936, 729.523146)"><g><path d="M -1.046875 -83.953125 C 5.953125 -88.929688 12.96875 -90.859375 20 -89.734375 C 27.039062 -88.609375 33.328125 -84.15625 38.859375 -76.375 L 61.875 -44 L 54.328125 -38.640625 L 31.84375 -70.265625 C 27.71875 -76.066406 23.125 -79.457031 18.0625 -80.4375 C 13 -81.414062 7.773438 -79.988281 2.390625 -76.15625 C -3.617188 -71.882812 -7.101562 -66.71875 -8.0625 -60.65625 C -9.019531 -54.59375 -7.257812 -48.410156 -2.78125 -42.109375 L 18.046875 -12.828125 L 10.5 -7.46875 L -45.5 -86.21875 L -37.953125 -91.578125 L -14.703125 -58.890625 C -14.972656 -63.597656 -13.929688 -68.117188 -11.578125 -72.453125 C -9.222656 -76.796875 -5.710938 -80.628906 -1.046875 -83.953125 Z M -1.046875 -83.953125 "/></g></g></g><g fill="#000000" fill-opacity="1"><g transform="translate(668.315413, 671.139794)"><g><path d="M -57.265625 -71.828125 L -49.640625 -79.65625 L -5.3125 -33.734375 L -10.3125 -28.609375 Z M 12.28125 -11.65625 C 10.945312 -10.289062 9.328125 -9.597656 7.421875 -9.578125 C 5.523438 -9.554688 3.921875 -10.1875 2.609375 -11.46875 C 1.242188 -12.789062 0.566406 -14.359375 0.578125 -16.171875 C 0.585938 -17.984375 1.285156 -19.597656 2.671875 -21.015625 C 4.003906 -22.390625 5.578125 -23.101562 7.390625 -23.15625 C 9.203125 -23.207031 10.789062 -22.570312 12.15625 -21.25 C 13.46875 -19.96875 14.148438 -18.390625 14.203125 -16.515625 C 14.253906 -14.648438 13.613281 -13.03125 12.28125 -11.65625 Z M 12.28125 -11.65625 "/></g></g></g></svg>