<svg xmlns="http://www.w3.org/2000/svg" xmlns:xlink="http://www.w3.org/1999/xlink" width="500" zoomAndPan="magnify" viewBox="0 0 375 374.999991" height="500" preserveAspectRatio="xMidYMid meet" version="1.0"><defs><g/></defs><g fill="#dad6bc" fill-opacity="1"><g transform="translate(0.0410201, 252.166674)"><g><path d="M 62.160156 41.441406 C 63 41.441406 63.839844 41.160156 64.679688 40.320312 C 64.960938 39.757812 65.519531 39.199219 65.800781 38.359375 C 66.078125 37.519531 66.359375 36.960938 66.640625 36.121094 C 68.039062 31.917969 69.4375 27.441406 70.28125 22.960938 C 72.519531 12.601562 74.757812 2.519531 76.71875 -7.839844 C 78.679688 -18.199219 80.917969 -28.558594 83.160156 -38.917969 C 84.558594 -45.078125 86.238281 -51.238281 87.640625 -57.679688 C 89.039062 -63.839844 90.71875 -70 92.121094 -76.160156 C 92.679688 -79.800781 94.640625 -81.480469 98.277344 -81.757812 C 100.519531 -82.039062 102.757812 -82.597656 105 -82.878906 C 107.238281 -83.160156 109.480469 -83.4375 111.71875 -83.71875 C 113.679688 -84 115.917969 -84.558594 117.878906 -85.398438 C 119.558594 -85.960938 120.117188 -87.078125 119.839844 -89.039062 C 119.558594 -91 117.878906 -92.121094 115.917969 -91.839844 C 115.640625 -91.839844 115.359375 -91.839844 115.078125 -91.839844 C 114.800781 -91.558594 114.238281 -91.558594 113.957031 -91.558594 C 109.480469 -90.71875 105 -90.160156 100.519531 -89.320312 L 98.839844 -89.320312 C 96.597656 -89.320312 95.757812 -91 96.597656 -94.078125 L 104.160156 -121.519531 C 109.480469 -139.160156 114.800781 -156.238281 122.359375 -173.320312 C 122.640625 -174.160156 123.199219 -175.277344 123.757812 -176.398438 C 124.039062 -177.238281 124.039062 -178.359375 123.757812 -179.476562 C 123.480469 -180.878906 122.640625 -181.71875 121.519531 -182 C 120.398438 -182 119.558594 -181.71875 119 -181.160156 C 116.757812 -179.757812 115.917969 -177.238281 115.078125 -175 C 104.160156 -148.117188 96.597656 -121.238281 88.757812 -93.238281 C 87.359375 -87.917969 87.078125 -87.917969 81.480469 -87.078125 C 73.640625 -86.238281 66.078125 -85.679688 58.519531 -85.121094 C 50.960938 -84.558594 43.398438 -84 35.839844 -83.160156 C 35.28125 -83.160156 34.71875 -83.160156 34.441406 -83.160156 C 33.878906 -82.878906 33.320312 -82.878906 33.039062 -82.878906 C 30.800781 -82.878906 29.679688 -84 29.960938 -86.238281 L 30.800781 -89.878906 C 35 -106.679688 39.480469 -122.640625 45.359375 -139.160156 C 45.640625 -140 46.199219 -141.117188 46.480469 -142.238281 C 46.757812 -143.078125 47.039062 -144.199219 47.320312 -145.039062 C 47.878906 -146.71875 47.320312 -148.117188 45.640625 -148.957031 C 45.359375 -149.238281 44.800781 -149.238281 43.960938 -149.238281 C 42.839844 -149.238281 41.71875 -148.679688 40.878906 -147.558594 C 40.320312 -146.160156 39.757812 -145.039062 39.480469 -143.917969 C 38.917969 -142.519531 38.359375 -141.398438 37.800781 -140 C 32.199219 -124.320312 28.28125 -108.359375 24.078125 -92.398438 C 23.238281 -89.039062 22.679688 -85.121094 20.71875 -82.039062 C 19.601562 -80.078125 17.917969 -79.238281 15.960938 -79.519531 C 13.71875 -79.519531 11.761719 -78.960938 9.800781 -78.121094 C 8.398438 -77.558594 7 -77 5.601562 -76.71875 C 4.199219 -76.160156 2.800781 -75.597656 1.398438 -75.039062 C 0 -74.480469 -0.28125 -73.359375 0 -71.960938 C 0.28125 -70 1.398438 -69.160156 3.078125 -69.160156 C 4.480469 -69.160156 5.320312 -69.160156 5.878906 -69.4375 C 7.28125 -69.71875 8.960938 -70.28125 10.359375 -70.558594 C 11.761719 -70.839844 13.160156 -71.398438 14.558594 -71.679688 C 15.121094 -71.960938 15.679688 -71.960938 16.519531 -71.960938 C 18.199219 -71.960938 18.761719 -70.839844 18.199219 -68.597656 L 11.199219 -35.558594 C 7 -18.480469 3.078125 -1.121094 3.078125 16.800781 C 3.078125 18.199219 3.921875 19.320312 5.878906 20.160156 C 6.160156 20.160156 6.160156 20.160156 6.441406 20.441406 C 6.71875 20.441406 6.71875 20.441406 7 20.441406 C 8.398438 20.441406 9.519531 19.601562 10.359375 17.917969 C 12.320312 13.71875 14.28125 9.238281 12.320312 4.761719 C 11.199219 1.679688 11.480469 -1.121094 12.320312 -4.199219 C 13.71875 -12.320312 15.121094 -20.441406 17.078125 -28.558594 C 18.480469 -35.558594 20.160156 -42.28125 21.558594 -49.28125 C 22.960938 -56 24.640625 -62.71875 26.039062 -69.71875 C 26.601562 -73.078125 28.28125 -74.757812 31.359375 -75.039062 C 32.199219 -75.320312 33.320312 -75.320312 34.160156 -75.597656 C 35 -75.878906 35.839844 -75.878906 36.679688 -75.878906 C 51.238281 -77.28125 65.800781 -78.398438 80.359375 -79.519531 L 81.199219 -79.519531 C 83.160156 -79.519531 84.558594 -79.519531 84.558594 -77.28125 L 83.4375 -71.960938 C 80.359375 -60.199219 77.839844 -48.441406 75.320312 -36.679688 C 72.800781 -24.917969 70.558594 -13.160156 68.039062 -1.398438 C 66.640625 5.039062 65.519531 11.199219 64.398438 17.640625 C 63 23.800781 61.039062 29.960938 58.519531 35.839844 C 58.238281 36.121094 58.238281 36.679688 58.238281 37.519531 C 58.238281 39.480469 59.078125 40.601562 60.480469 41.160156 C 60.757812 41.441406 61.320312 41.441406 62.160156 41.441406 Z M 62.160156 41.441406 "/></g></g></g><g fill="#dad6bc" fill-opacity="1"><g transform="translate(110.079858, 252.166674)"><g><path d="M 11.761719 -14 C 14.28125 -14 17.078125 -14.839844 19.601562 -16.238281 C 23.238281 -18.761719 26.039062 -21.839844 28 -26.039062 C 30.519531 -31.359375 31.078125 -36.679688 29.960938 -42 C 29.121094 -46.757812 28.839844 -46.757812 34.160156 -47.597656 C 40.039062 -48.160156 45.359375 -49.558594 50.679688 -51.519531 C 55.71875 -53.480469 61.039062 -55.160156 66.359375 -57.121094 C 68.878906 -57.960938 69.4375 -59.640625 68.597656 -61.597656 C 67.757812 -63 66.359375 -63.839844 64.960938 -63.839844 L 60.480469 -62.71875 C 57.960938 -61.878906 55.441406 -60.757812 52.917969 -59.917969 C 50.398438 -59.078125 47.597656 -57.960938 45.078125 -57.121094 C 39.757812 -55.441406 34.71875 -54.597656 29.398438 -54.597656 L 20.71875 -54.597656 C 18.761719 -54.320312 17.078125 -52.359375 17.917969 -50.398438 C 18.761719 -48.441406 19.601562 -46.757812 20.71875 -44.800781 C 24.917969 -38.359375 23.519531 -32.480469 19.878906 -26.601562 C 17.359375 -22.121094 14.558594 -21.558594 10.078125 -21.558594 C 6.441406 -22.398438 4.480469 -25.761719 4.480469 -31.078125 C 4.480469 -34.160156 4.761719 -36.960938 5.601562 -39.199219 C 6.71875 -43.960938 8.679688 -48.71875 11.199219 -53.480469 C 14.28125 -58.238281 16.800781 -63 23.238281 -64.121094 C 25.199219 -64.398438 25.199219 -65.800781 24.917969 -67.757812 C 24.640625 -69.160156 23.800781 -70.28125 21.839844 -70.558594 C 20.441406 -70.558594 19.320312 -70.28125 18.199219 -69.71875 C 7.28125 -65.519531 -1.960938 -44.519531 -2.800781 -33.039062 C -3.078125 -30.800781 -2.800781 -28.28125 -2.238281 -25.761719 C -0.839844 -18.199219 5.039062 -14 11.761719 -14 Z M 11.761719 -14 "/></g></g></g><g fill="#dad6bc" fill-opacity="1"><g transform="translate(164.959253, 252.166674)"><g><path d="M 1.679688 -2.800781 C 3.078125 -2.800781 4.199219 -3.359375 5.320312 -4.480469 C 8.398438 -7 9.519531 -10.078125 11.480469 -13.441406 C 15.960938 -21.28125 20.441406 -29.398438 24.917969 -37.519531 C 28.558594 -43.960938 32.480469 -50.121094 37.238281 -55.71875 C 38.078125 -56.558594 38.640625 -57.679688 39.480469 -59.078125 C 40.320312 -60.199219 41.160156 -60.480469 42.28125 -60.199219 C 43.679688 -59.917969 44.519531 -58.800781 44.238281 -57.398438 C 43.960938 -56 43.679688 -54.597656 43.679688 -53.480469 C 43.679688 -49.28125 43.398438 -45.078125 43.121094 -40.878906 C 43.121094 -36.398438 43.121094 -32.480469 45.078125 -28.28125 C 46.480469 -26.320312 47.878906 -25.480469 49.839844 -25.480469 C 50.121094 -25.480469 50.960938 -25.761719 52.078125 -26.039062 C 54.039062 -26.878906 56 -28.28125 57.398438 -29.679688 C 58.800781 -31.078125 60.480469 -32.757812 61.878906 -34.160156 C 63.839844 -36.121094 66.078125 -38.359375 68.039062 -40.320312 C 70 -42.28125 72.238281 -44.238281 74.757812 -45.640625 C 76.160156 -44.800781 77.28125 -43.398438 77.839844 -42 C 78.121094 -40.601562 78.960938 -39.199219 79.800781 -37.800781 C 82.878906 -33.039062 86.800781 -30.800781 91.558594 -30.800781 C 93.800781 -30.800781 96.039062 -31.078125 98 -31.917969 C 101.917969 -33.878906 105.277344 -35.839844 108.078125 -38.078125 L 124.878906 -52.359375 C 126.277344 -53.480469 127.679688 -54.878906 128.800781 -56.28125 C 130.757812 -58.238281 130.757812 -59.917969 129.078125 -61.597656 C 128.519531 -62.4375 127.679688 -63 126.558594 -63 C 125.71875 -63 124.878906 -62.4375 123.480469 -61.597656 C 123.199219 -60.757812 122.640625 -60.480469 122.359375 -60.199219 C 116.480469 -54.878906 110.039062 -49.28125 103.597656 -43.960938 C 101.078125 -42 95.199219 -38.078125 91.558594 -38.078125 C 89.878906 -38.078125 88.199219 -38.917969 86.800781 -40.601562 C 85.679688 -42 84.839844 -43.398438 84 -45.359375 C 83.71875 -46.199219 83.4375 -47.039062 83.160156 -47.878906 C 82.878906 -48.71875 82.320312 -49.558594 81.757812 -50.398438 C 80.640625 -52.917969 78.679688 -54.039062 76.160156 -54.039062 C 75.878906 -54.039062 74.757812 -53.757812 73.359375 -53.480469 C 71.679688 -52.640625 70 -51.519531 68.039062 -50.121094 C 66.640625 -48.71875 64.960938 -47.039062 63.558594 -45.640625 C 61.878906 -44.238281 60.199219 -42.558594 58.800781 -41.160156 L 53.480469 -36.121094 C 53.199219 -36.121094 53.199219 -36.121094 52.917969 -35.839844 C 51.519531 -35.839844 50.679688 -36.398438 50.679688 -37.519531 C 50.679688 -38.359375 50.679688 -39.480469 50.679688 -40.601562 C 50.398438 -41.71875 50.398438 -42.839844 50.398438 -43.960938 C 50.679688 -46.199219 50.679688 -48.441406 50.960938 -50.679688 C 51.238281 -52.917969 51.238281 -55.160156 51.238281 -57.679688 C 51.519531 -61.039062 51.519531 -64.398438 50.121094 -67.480469 C 49.28125 -70 47.597656 -71.398438 45.078125 -71.398438 C 44.238281 -71.398438 43.121094 -71.121094 42 -70.558594 C 34.441406 -65.238281 28.28125 -56.839844 23.519531 -49.28125 C 21 -45.359375 18.761719 -41.441406 16.519531 -37.519531 C 14.28125 -33.320312 12.039062 -29.398438 9.800781 -25.480469 C 9.519531 -25.199219 9.238281 -24.640625 8.960938 -24.078125 C 8.679688 -23.519531 8.398438 -23.238281 7.558594 -23.238281 C 7 -23.238281 6.441406 -23.238281 6.160156 -23.519531 C 6.441406 -24.078125 6.441406 -24.640625 6.441406 -25.199219 C 6.160156 -25.761719 6.160156 -26.320312 6.441406 -27.160156 C 11.199219 -49.558594 17.640625 -71.960938 27.441406 -92.398438 C 28 -93.800781 28.558594 -94.917969 29.398438 -96.320312 C 29.960938 -97.4375 29.960938 -98.839844 29.679688 -100.238281 C 29.398438 -101.078125 28 -102.480469 27.160156 -102.480469 C 26.878906 -102.480469 26.320312 -102.199219 25.480469 -101.917969 C 19.320312 -98.839844 7 -58.519531 4.761719 -51.238281 C 0.558594 -36.960938 -2.800781 -22.121094 -2.800781 -7.28125 C -2.800781 -5.039062 -1.679688 -3.640625 0.28125 -3.078125 C 0.558594 -2.800781 1.121094 -2.800781 1.679688 -2.800781 Z M 1.679688 -2.800781 "/></g></g></g><g fill="#dad6bc" fill-opacity="1"><g transform="translate(281.157976, 252.166674)"><g><path d="M 13.160156 -11.761719 C 32.480469 -11.761719 61.878906 -40.320312 75.320312 -54.597656 C 76.4375 -55.71875 77.28125 -56.558594 77.558594 -57.398438 C 78.398438 -58.800781 78.121094 -60.199219 76.71875 -61.597656 C 76.160156 -62.160156 75.597656 -62.4375 74.757812 -62.4375 C 74.199219 -62.4375 73.359375 -62.160156 72.519531 -61.597656 C 71.679688 -60.757812 70.839844 -59.917969 70 -59.078125 C 69.160156 -58.238281 68.039062 -57.398438 67.199219 -56.558594 C 63.839844 -53.480469 60.480469 -50.398438 57.398438 -47.320312 C 54.039062 -44.238281 50.679688 -40.878906 47.320312 -37.800781 C 39.199219 -30.238281 26.320312 -21.28125 15.121094 -19.039062 C 9.800781 -19.039062 6.71875 -19.039062 5.601562 -25.480469 C 4.199219 -29.121094 3.921875 -32.199219 4.761719 -35.28125 C 5.039062 -36.679688 5.878906 -37.519531 7 -37.800781 C 20.441406 -39.199219 38.078125 -55.71875 40.320312 -69.4375 C 41.160156 -75.878906 37.519531 -79.800781 31.917969 -79.800781 C 31.640625 -79.800781 31.078125 -79.800781 30.800781 -79.800781 C 30.519531 -79.519531 29.960938 -79.519531 29.679688 -79.519531 C 14.839844 -77.28125 3.921875 -57.679688 -0.839844 -44.519531 C -1.960938 -40.320312 -3.078125 -36.398438 -2.800781 -31.640625 C -3.078125 -28.558594 -2.238281 -25.199219 -1.121094 -22.121094 C 0.839844 -15.121094 5.601562 -11.761719 13.160156 -11.761719 Z M 10.640625 -46.199219 C 10.359375 -45.917969 9.800781 -46.199219 8.960938 -46.480469 C 8.679688 -46.480469 8.398438 -47.039062 8.398438 -47.878906 C 11.480469 -56.558594 21 -70.558594 30.238281 -71.960938 C 31.640625 -72.238281 32.480469 -71.679688 32.757812 -69.71875 C 32.757812 -60.757812 17.917969 -50.121094 10.640625 -46.199219 Z M 10.640625 -46.199219 "/></g></g></g><g fill="#dad6bc" fill-opacity="1"><g transform="translate(344.997304, 252.166674)"><g><path d="M 14 -14.558594 C 16.238281 -14.558594 18.480469 -16.238281 18.761719 -18.199219 C 19.039062 -20.441406 17.917969 -21.558594 15.398438 -21.558594 C 13.441406 -21.558594 12.039062 -20.441406 11.480469 -18.199219 C 10.917969 -15.679688 11.761719 -14.558594 14 -14.558594 Z M 14 -14.558594 "/></g></g></g></svg>