<svg xmlns="http://www.w3.org/2000/svg" xmlns:xlink="http://www.w3.org/1999/xlink" width="500" zoomAndPan="magnify" viewBox="0 0 375 374.999991" height="500" preserveAspectRatio="xMidYMid meet" version="1.0"><path fill="#dad6bc" d="M 169.5625 1.035156 C 125.5625 5.574219 85.953125 24.316406 55.058594 55.210938 C 25.40625 84.863281 7.542969 121.25 1.390625 164.59375 C 0.144531 173.230469 0.144531 202.078125 1.390625 210.714844 C 7.613281 254.132812 25.402344 290.371094 55.054688 320.097656 C 84.78125 349.75 121.019531 367.542969 164.4375 373.761719 C 173.074219 375.007812 201.921875 375.007812 210.558594 373.761719 C 240.722656 369.441406 266.347656 360 290.726562 344.039062 C 310.640625 331.007812 330.851562 310.796875 343.882812 290.882812 C 359.84375 266.433594 369.285156 240.878906 373.605469 210.714844 C 374.851562 202.078125 374.851562 173.230469 373.605469 164.59375 C 367.382812 121.175781 349.59375 84.9375 319.941406 55.210938 C 290.949219 26.21875 255.515625 8.5 213.855469 2.058594 C 204.632812 0.667969 178.933594 0.0078125 169.5625 1.035156 Z M 287.070312 185.824219 L 287.070312 255.011719 L 87.929688 255.011719 L 87.929688 116.636719 L 287.070312 116.636719 Z M 287.070312 185.824219 " fill-opacity="1" fill-rule="nonzero"/><path fill="#dad6bc" d="M 99.789062 132.523438 L 100.011719 136.769531 L 143.792969 163.933594 L 187.644531 191.167969 L 231.5 163.640625 L 275.355469 136.183594 L 275.355469 128.347656 L 99.570312 128.347656 Z M 99.789062 132.523438 " fill-opacity="1" fill-rule="nonzero"/><path fill="#dad6bc" d="M 99.644531 192.046875 C 99.644531 214.960938 99.789062 233.78125 99.9375 233.78125 C 100.449219 233.78125 142.765625 179.820312 143.28125 178.652344 C 143.648438 177.625 141.527344 176.234375 107.1875 154.933594 L 99.648438 150.320312 L 99.648438 192.046875 Z M 99.644531 192.046875 " fill-opacity="1" fill-rule="nonzero"/><path fill="#dad6bc" d="M 253.171875 163.933594 C 241.160156 171.398438 231.429688 177.769531 231.574219 178.0625 C 231.71875 178.359375 241.527344 190.949219 253.390625 206.03125 L 274.988281 233.5625 L 275.207031 212.769531 C 275.28125 201.347656 275.28125 182.679688 275.207031 171.183594 L 274.988281 150.25 Z M 253.171875 163.933594 " fill-opacity="1" fill-rule="nonzero"/><path fill="#dad6bc" d="M 131.050781 213.5 L 107.988281 242.929688 L 147.742188 243.152344 C 169.636719 243.222656 205.507812 243.222656 227.472656 243.152344 L 267.445312 242.929688 L 245.339844 214.742188 C 233.183594 199.222656 222.714844 185.96875 222.058594 185.3125 C 220.886719 184.140625 219.863281 184.652344 205.070312 194.023438 C 196.433594 199.441406 188.816406 204.054688 188.234375 204.273438 C 187.574219 204.417969 180.035156 200.171875 171.390625 194.828125 C 162.753906 189.414062 155.28125 184.796875 154.917969 184.578125 C 154.480469 184.359375 143.789062 197.390625 131.050781 213.5 Z M 131.050781 213.5 " fill-opacity="1" fill-rule="nonzero"/></svg>